<svg width="355" height="259" viewBox="0 0 355 259" fill="none" xmlns="http://www.w3.org/2000/svg">
    <path d="M8.76523 52.7339C11.9575 52.7339 14.5453 50.1461 14.5453 46.9539C14.5453 43.7617 11.9575 41.1738 8.76523 41.1738C5.57299 41.1738 2.98517 43.7617 2.98517 46.9539C2.98517 50.1461 5.57299 52.7339 8.76523 52.7339Z" fill="#E6E6E6"/>
    <path d="M26.1054 52.7339C29.2976 52.7339 31.8855 50.1461 31.8855 46.9539C31.8855 43.7617 29.2976 41.1738 26.1054 41.1738C22.9132 41.1738 20.3253 43.7617 20.3253 46.9539C20.3253 50.1461 22.9132 52.7339 26.1054 52.7339Z" fill="#E6E6E6"/>
    <path d="M43.4456 52.7339C46.6378 52.7339 49.2256 50.1461 49.2256 46.9539C49.2256 43.7617 46.6378 41.1738 43.4456 41.1738C40.2533 41.1738 37.6655 43.7617 37.6655 46.9539C37.6655 50.1461 40.2533 52.7339 43.4456 52.7339Z" fill="#E6E6E6"/>
    <path d="M60.7857 52.7339C63.978 52.7339 66.5658 50.1461 66.5658 46.9539C66.5658 43.7617 63.978 41.1738 60.7857 41.1738C57.5935 41.1738 55.0057 43.7617 55.0057 46.9539C55.0057 50.1461 57.5935 52.7339 60.7857 52.7339Z" fill="#E6E6E6"/>
    <path d="M78.1259 52.7339C81.3182 52.7339 83.906 50.1461 83.906 46.9539C83.906 43.7617 81.3182 41.1738 78.1259 41.1738C74.9337 41.1738 72.3459 43.7617 72.3459 46.9539C72.3459 50.1461 74.9337 52.7339 78.1259 52.7339Z" fill="#E6E6E6"/>
    <path d="M95.4661 52.7339C98.6583 52.7339 101.246 50.1461 101.246 46.9539C101.246 43.7617 98.6583 41.1738 95.4661 41.1738C92.2738 41.1738 89.686 43.7617 89.686 46.9539C89.686 50.1461 92.2738 52.7339 95.4661 52.7339Z" fill="#E6E6E6"/>
    <path d="M112.806 52.7339C115.998 52.7339 118.586 50.1461 118.586 46.9539C118.586 43.7617 115.998 41.1738 112.806 41.1738C109.614 41.1738 107.026 43.7617 107.026 46.9539C107.026 50.1461 109.614 52.7339 112.806 52.7339Z" fill="#E6E6E6"/>
    <path d="M126.163 53.9925H-4.59138C-5.21499 53.9918 -5.81285 53.7437 -6.25381 53.3028C-6.69478 52.8618 -6.94282 52.264 -6.94356 51.6403V42.2672C-6.94283 41.6436 -6.69478 41.0457 -6.25381 40.6048C-5.81285 40.1638 -5.21499 39.9158 -4.59138 39.915H126.163C126.786 39.9158 127.384 40.1638 127.825 40.6048C128.266 41.0457 128.514 41.6436 128.515 42.2672V51.6403C128.514 52.264 128.266 52.8618 127.825 53.3028C127.384 53.7437 126.786 53.9918 126.163 53.9925ZM-4.59138 40.8559C-4.96556 40.8563 -5.32429 41.0052 -5.58887 41.2697C-5.85346 41.5343 -6.00228 41.8931 -6.00269 42.2672V51.6403C-6.00228 52.0145 -5.85346 52.3733 -5.58887 52.6378C-5.32429 52.9024 -4.96556 53.0512 -4.59138 53.0517H126.163C126.537 53.0512 126.896 52.9024 127.16 52.6378C127.425 52.3733 127.574 52.0145 127.574 51.6403V42.2672C127.574 41.893 127.425 41.5343 127.16 41.2697C126.896 41.0051 126.537 40.8563 126.163 40.8559L-4.59138 40.8559Z" fill="#E6E6E6"/>
    <path d="M23.3909 1.35147C23.7492 1.35188 24.0927 1.4944 24.346 1.74775C24.5994 2.00111 24.7419 2.34462 24.7423 2.70292V31.989C24.7419 32.3473 24.5994 32.6908 24.346 32.9442C24.0927 33.1975 23.7492 33.34 23.3909 33.3405H-5.29705C-5.65535 33.34 -5.99886 33.1975 -6.25222 32.9442C-6.50558 32.6908 -6.6481 32.3473 -6.64851 31.989V2.70294C-6.6481 2.34464 -6.50558 2.00113 -6.25222 1.74777C-5.99886 1.49442 -5.65535 1.3519 -5.29705 1.35149H23.3909V1.35147ZM23.3909 1.94115e-05H-5.29705C-6.01391 1.94115e-05 -6.70142 0.284792 -7.20832 0.791692C-7.71522 1.29859 -8 1.9861 -8 2.70296V31.989C-8 32.7059 -7.71522 33.3934 -7.20832 33.9003C-6.70142 34.4072 -6.01391 34.6919 -5.29705 34.6919H23.3909C24.1077 34.6919 24.7952 34.4072 25.3021 33.9003C25.809 33.3934 26.0938 32.7059 26.0938 31.989V2.70294C26.0938 1.98608 25.809 1.29857 25.3021 0.791673C24.7952 0.284773 24.1077 1.12465e-06 23.3909 0V1.94115e-05Z" fill="#E6E6E6"/>
    <path d="M18.9162 9.04946H-0.224201C-0.313288 9.05001 -0.401601 9.03294 -0.484063 8.99922C-0.566526 8.96551 -0.641507 8.91582 -0.704695 8.85302C-0.767882 8.79022 -0.818029 8.71554 -0.852248 8.63329C-0.886467 8.55104 -0.904083 8.46283 -0.904083 8.37374C-0.904083 8.28465 -0.886467 8.19644 -0.852248 8.11419C-0.818029 8.03193 -0.767882 7.95726 -0.704695 7.89446C-0.641507 7.83165 -0.566526 7.78197 -0.484063 7.74825C-0.401601 7.71454 -0.313288 7.69746 -0.224201 7.69801H18.9162C19.0052 7.69746 19.0936 7.71454 19.176 7.74825C19.2585 7.78197 19.3335 7.83165 19.3967 7.89446C19.4598 7.95726 19.51 8.03193 19.5442 8.11419C19.5784 8.19644 19.596 8.28465 19.596 8.37374C19.596 8.46283 19.5784 8.55104 19.5442 8.63329C19.51 8.71554 19.4598 8.79022 19.3967 8.85302C19.3335 8.91582 19.2585 8.96551 19.176 8.99922C19.0936 9.03294 19.0052 9.05001 18.9162 9.04946Z" fill="#463BFF"/>
    <path d="M18.9162 13.8349H-0.224201C-0.313288 13.8354 -0.401601 13.8183 -0.484063 13.7846C-0.566526 13.7509 -0.641507 13.7012 -0.704695 13.6384C-0.767882 13.5756 -0.818029 13.5009 -0.852248 13.4187C-0.886467 13.3364 -0.904083 13.2482 -0.904083 13.1591C-0.904083 13.07 -0.886467 12.9818 -0.852248 12.8996C-0.818029 12.8173 -0.767882 12.7427 -0.704695 12.6799C-0.641507 12.6171 -0.566526 12.5674 -0.484063 12.5337C-0.401601 12.4999 -0.313288 12.4829 -0.224201 12.4834H18.9162C19.0052 12.4829 19.0936 12.4999 19.176 12.5337C19.2585 12.5674 19.3335 12.6171 19.3967 12.6799C19.4598 12.7427 19.51 12.8173 19.5442 12.8996C19.5784 12.9818 19.596 13.07 19.596 13.1591C19.596 13.2482 19.5784 13.3364 19.5442 13.4187C19.51 13.5009 19.4598 13.5756 19.3967 13.6384C19.3335 13.7012 19.2585 13.7509 19.176 13.7846C19.0936 13.8183 19.0052 13.8354 18.9162 13.8349Z" fill="#463BFF"/>
    <path d="M18.9162 18.6198H-0.224201C-0.313288 18.6203 -0.401601 18.6032 -0.484063 18.5695C-0.566526 18.5358 -0.641507 18.4861 -0.704695 18.4233C-0.767882 18.3605 -0.818029 18.2859 -0.852248 18.2036C-0.886467 18.1213 -0.904083 18.0331 -0.904083 17.944C-0.904083 17.855 -0.886467 17.7667 -0.852248 17.6845C-0.818029 17.6022 -0.767882 17.5276 -0.704695 17.4648C-0.641507 17.402 -0.566526 17.3523 -0.484063 17.3186C-0.401601 17.2848 -0.313288 17.2678 -0.224201 17.2683H18.9162C19.0052 17.2678 19.0936 17.2848 19.176 17.3186C19.2585 17.3523 19.3335 17.402 19.3967 17.4648C19.4598 17.5276 19.51 17.6022 19.5442 17.6845C19.5784 17.7667 19.596 17.855 19.596 17.944C19.596 18.0331 19.5784 18.1213 19.5442 18.2036C19.51 18.2859 19.4598 18.3605 19.3967 18.4233C19.3335 18.4861 19.2585 18.5358 19.176 18.5695C19.0936 18.6032 19.0052 18.6203 18.9162 18.6198Z" fill="#463BFF"/>
    <path d="M18.9162 23.4049H-0.224201C-0.313288 23.4055 -0.401601 23.3884 -0.484063 23.3547C-0.566526 23.321 -0.641507 23.2713 -0.704695 23.2085C-0.767882 23.1457 -0.818029 23.071 -0.852248 22.9888C-0.886467 22.9065 -0.904083 22.8183 -0.904083 22.7292C-0.904083 22.6401 -0.886467 22.5519 -0.852248 22.4696C-0.818029 22.3874 -0.767882 22.3127 -0.704695 22.2499C-0.641507 22.1871 -0.566526 22.1374 -0.484063 22.1037C-0.401601 22.07 -0.313288 22.0529 -0.224201 22.0535H18.9162C19.0052 22.0529 19.0936 22.07 19.176 22.1037C19.2585 22.1374 19.3335 22.1871 19.3967 22.2499C19.4598 22.3127 19.51 22.3874 19.5442 22.4696C19.5784 22.5519 19.596 22.6401 19.596 22.7292C19.596 22.8183 19.5784 22.9065 19.5442 22.9888C19.51 23.071 19.4598 23.1457 19.3967 23.2085C19.3335 23.2713 19.2585 23.321 19.176 23.3547C19.0936 23.3884 19.0052 23.4055 18.9162 23.4049Z" fill="#463BFF"/>
    <path d="M18.9162 28.1903H-0.224199C-0.403415 28.1903 -0.575294 28.1192 -0.702019 27.9924C-0.828745 27.8657 -0.899933 27.6938 -0.899933 27.5146C-0.899933 27.3354 -0.828745 27.1635 -0.702019 27.0368C-0.575294 26.9101 -0.403415 26.8389 -0.224199 26.8389H18.9162C19.0954 26.8389 19.2672 26.9101 19.394 27.0368C19.5207 27.1635 19.5919 27.3354 19.5919 27.5146C19.5919 27.6938 19.5207 27.8657 19.394 27.9924C19.2672 28.1192 19.0954 28.1903 18.9162 28.1903Z" fill="#463BFF"/>
    <path d="M121.373 1.35147C121.731 1.35188 122.074 1.4944 122.328 1.74775C122.581 2.00111 122.724 2.34462 122.724 2.70292V31.989C122.724 32.3473 122.581 32.6908 122.328 32.9442C122.074 33.1975 121.731 33.34 121.373 33.3405H92.6847C92.3264 33.34 91.9829 33.1975 91.7295 32.9442C91.4762 32.6908 91.3337 32.3473 91.3332 31.989V2.70294C91.3337 2.34464 91.4762 2.00113 91.7295 1.74777C91.9829 1.49442 92.3264 1.3519 92.6847 1.35149H121.373V1.35147ZM121.373 1.94115e-05H92.6847C91.9678 1.94115e-05 91.2803 0.284792 90.7734 0.791692C90.2665 1.29859 89.9818 1.9861 89.9818 2.70296V31.989C89.9818 32.7059 90.2665 33.3934 90.7734 33.9003C91.2803 34.4072 91.9678 34.6919 92.6847 34.6919H121.373C122.089 34.6919 122.777 34.4072 123.284 33.9003C123.791 33.3934 124.076 32.7059 124.076 31.989V2.70294C124.076 1.98608 123.791 1.29857 123.284 0.791673C122.777 0.284773 122.089 0 121.373 0V1.94115e-05Z" fill="#E6E6E6"/>
    <path d="M116.898 9.04946H97.7575C97.6685 9.05001 97.5801 9.03294 97.4977 8.99922C97.4152 8.96551 97.3402 8.91582 97.277 8.85302C97.2139 8.79022 97.1637 8.71554 97.1295 8.63329C97.0953 8.55104 97.0777 8.46283 97.0777 8.37374C97.0777 8.28465 97.0953 8.19644 97.1295 8.11419C97.1637 8.03193 97.2139 7.95726 97.277 7.89446C97.3402 7.83165 97.4152 7.78197 97.4977 7.74825C97.5801 7.71454 97.6685 7.69746 97.7575 7.69801H116.898C117.076 7.69911 117.247 7.77078 117.373 7.89739C117.499 8.02399 117.569 8.19524 117.569 8.37374C117.569 8.55224 117.499 8.72348 117.373 8.85008C117.247 8.97669 117.076 9.04836 116.898 9.04946H116.898Z" fill="#463BFF"/>
    <path d="M116.898 13.8349H97.7575C97.6685 13.8354 97.5801 13.8183 97.4977 13.7846C97.4152 13.7509 97.3402 13.7012 97.277 13.6384C97.2139 13.5756 97.1637 13.5009 97.1295 13.4187C97.0953 13.3364 97.0777 13.2482 97.0777 13.1591C97.0777 13.07 97.0953 12.9818 97.1295 12.8996C97.1637 12.8173 97.2139 12.7427 97.277 12.6799C97.3402 12.6171 97.4152 12.5674 97.4977 12.5337C97.5801 12.4999 97.6685 12.4829 97.7575 12.4834H116.898C117.076 12.4845 117.247 12.5562 117.373 12.6828C117.499 12.8094 117.569 12.9806 117.569 13.1591C117.569 13.3376 117.499 13.5089 117.373 13.6355C117.247 13.7621 117.076 13.8338 116.898 13.8349H116.898Z" fill="#463BFF"/>
    <path d="M116.898 18.6198H97.7575C97.6685 18.6203 97.5801 18.6032 97.4977 18.5695C97.4152 18.5358 97.3402 18.4861 97.277 18.4233C97.2139 18.3605 97.1637 18.2859 97.1295 18.2036C97.0953 18.1213 97.0777 18.0331 97.0777 17.944C97.0777 17.855 97.0953 17.7667 97.1295 17.6845C97.1637 17.6022 97.2139 17.5276 97.277 17.4648C97.3402 17.402 97.4152 17.3523 97.4977 17.3186C97.5801 17.2848 97.6685 17.2678 97.7575 17.2683H116.898C117.076 17.2694 117.247 17.3411 117.373 17.4677C117.499 17.5943 117.569 17.7655 117.569 17.944C117.569 18.1225 117.499 18.2938 117.373 18.4204C117.247 18.547 117.076 18.6187 116.898 18.6198H116.898Z" fill="#463BFF"/>
    <path d="M116.898 23.4049H97.7575C97.6685 23.4055 97.5801 23.3884 97.4977 23.3547C97.4152 23.321 97.3402 23.2713 97.277 23.2085C97.2139 23.1457 97.1637 23.071 97.1295 22.9888C97.0953 22.9065 97.0777 22.8183 97.0777 22.7292C97.0777 22.6401 97.0953 22.5519 97.1295 22.4696C97.1637 22.3874 97.2139 22.3127 97.277 22.2499C97.3402 22.1871 97.4152 22.1374 97.4977 22.1037C97.5801 22.07 97.6685 22.0529 97.7575 22.0535H116.898C117.076 22.0546 117.247 22.1263 117.373 22.2529C117.499 22.3795 117.569 22.5507 117.569 22.7292C117.569 22.9077 117.499 23.0789 117.373 23.2056C117.247 23.3322 117.076 23.4038 116.898 23.4049H116.898Z" fill="#463BFF"/>
    <path d="M116.898 28.1903H97.7576C97.5783 28.1903 97.4065 28.1192 97.2797 27.9924C97.153 27.8657 97.0818 27.6938 97.0818 27.5146C97.0818 27.3354 97.153 27.1635 97.2797 27.0368C97.4065 26.9101 97.5783 26.8389 97.7576 26.8389H116.898C117.077 26.8389 117.249 26.9101 117.376 27.0368C117.502 27.1635 117.574 27.3354 117.574 27.5146C117.574 27.6938 117.502 27.8657 117.376 27.9924C117.249 28.1192 117.077 28.1903 116.898 28.1903H116.898Z" fill="#463BFF"/>
    <path d="M218.878 57.6618C219.237 57.6622 219.58 57.8047 219.834 58.0581C220.087 58.3114 220.23 58.6549 220.23 59.0132V88.2993C220.23 88.6576 220.087 89.0011 219.834 89.2544C219.58 89.5078 219.237 89.6503 218.878 89.6507H190.191C189.832 89.6503 189.489 89.5078 189.235 89.2544C188.982 89.0011 188.84 88.6576 188.839 88.2993V59.0133C188.84 58.655 188.982 58.3114 189.235 58.0581C189.489 57.8047 189.832 57.6622 190.191 57.6618H218.878V57.6618ZM218.878 56.3103H190.191C189.474 56.3103 188.786 56.5951 188.279 57.102C187.772 57.6089 187.488 58.2964 187.488 59.0133V88.2993C187.488 89.0162 187.772 89.7037 188.279 90.2106C188.786 90.7175 189.474 91.0023 190.191 91.0023H218.878C219.595 91.0023 220.283 90.7175 220.79 90.2106C221.297 89.7037 221.581 89.0162 221.581 88.2993V59.0133C221.581 58.2964 221.297 57.6089 220.79 57.102C220.283 56.5951 219.595 56.3103 218.878 56.3103V56.3103Z" fill="#463BFF"/>
    <path d="M214.404 65.36H195.263C195.174 65.3606 195.086 65.3435 195.004 65.3098C194.921 65.2761 194.846 65.2264 194.783 65.1636C194.72 65.1008 194.67 65.0261 194.635 64.9438C194.601 64.8616 194.583 64.7734 194.583 64.6843C194.583 64.5952 194.601 64.507 194.635 64.4247C194.67 64.3425 194.72 64.2678 194.783 64.205C194.846 64.1422 194.921 64.0925 195.004 64.0588C195.086 64.0251 195.174 64.008 195.263 64.0086H214.404C214.582 64.0097 214.753 64.0813 214.879 64.2079C215.005 64.3345 215.075 64.5058 215.075 64.6843C215.075 64.8628 215.005 65.034 214.879 65.1606C214.753 65.2872 214.582 65.3589 214.404 65.36Z" fill="#463BFF"/>
    <path d="M214.404 70.1452H195.263C195.084 70.1452 194.912 70.074 194.786 69.9473C194.659 69.8205 194.588 69.6487 194.588 69.4694C194.588 69.2902 194.659 69.1183 194.786 68.9916C194.912 68.8649 195.084 68.7937 195.263 68.7937H214.404C214.583 68.7937 214.755 68.8649 214.882 68.9916C215.008 69.1183 215.079 69.2902 215.079 69.4694C215.079 69.6487 215.008 69.8205 214.882 69.9473C214.755 70.074 214.583 70.1452 214.404 70.1452Z" fill="#463BFF"/>
    <path d="M214.404 74.9301H195.263C195.174 74.9305 195.086 74.9134 195.004 74.8796C194.921 74.8458 194.846 74.7961 194.783 74.7333C194.72 74.6706 194.67 74.5959 194.636 74.5137C194.602 74.4315 194.584 74.3434 194.584 74.2543C194.584 74.1653 194.602 74.0772 194.636 73.995C194.67 73.9128 194.72 73.8381 194.783 73.7753C194.846 73.7125 194.921 73.6628 195.004 73.6291C195.086 73.5953 195.174 73.5782 195.263 73.5786H214.404C214.582 73.5797 214.753 73.6514 214.879 73.778C215.005 73.9046 215.075 74.0758 215.075 74.2543C215.075 74.4328 215.005 74.6041 214.879 74.7307C214.753 74.8573 214.582 74.929 214.404 74.9301Z" fill="#463BFF"/>
    <path d="M214.404 79.7152H195.263C195.174 79.7158 195.086 79.6987 195.004 79.665C194.921 79.6313 194.846 79.5816 194.783 79.5188C194.72 79.456 194.67 79.3813 194.635 79.2991C194.601 79.2168 194.583 79.1286 194.583 79.0395C194.583 78.9504 194.601 78.8622 194.635 78.78C194.67 78.6977 194.72 78.623 194.783 78.5602C194.846 78.4974 194.921 78.4477 195.004 78.414C195.086 78.3803 195.174 78.3632 195.263 78.3638H214.404C214.582 78.3649 214.753 78.4365 214.879 78.5632C215.005 78.6898 215.075 78.861 215.075 79.0395C215.075 79.218 215.005 79.3893 214.879 79.5159C214.753 79.6425 214.582 79.7141 214.404 79.7152Z" fill="#463BFF"/>
    <path d="M214.404 84.5006H195.263C195.174 84.5012 195.086 84.4841 195.004 84.4504C194.921 84.4167 194.846 84.367 194.783 84.3042C194.72 84.2414 194.67 84.1667 194.635 84.0845C194.601 84.0022 194.583 83.914 194.583 83.8249C194.583 83.7358 194.601 83.6476 194.635 83.5654C194.67 83.4831 194.72 83.4084 194.783 83.3456C194.846 83.2828 194.921 83.2331 195.004 83.1994C195.086 83.1657 195.174 83.1486 195.263 83.1492H214.404C214.582 83.1503 214.753 83.2219 214.879 83.3486C215.005 83.4752 215.075 83.6464 215.075 83.8249C215.075 84.0034 215.005 84.1747 214.879 84.3013C214.753 84.4279 214.582 84.4995 214.404 84.5006Z" fill="#463BFF"/>
    <path d="M72.7571 34.692H43.3181C42.5219 34.691 41.7587 34.3743 41.1957 33.8114C40.6328 33.2485 40.3161 32.4852 40.3152 31.6891V10.6238C40.3161 9.82763 40.6327 9.0643 41.1957 8.50129C41.7586 7.93828 42.5219 7.62156 43.3181 7.62061H72.7571C73.5534 7.62148 74.3167 7.93817 74.8797 8.50119C75.4428 9.06421 75.7595 9.82757 75.7603 10.6238V31.6891C75.7594 32.4853 75.4426 33.2485 74.8796 33.8115C74.3166 34.3744 73.5533 34.6911 72.7571 34.692ZM43.3181 8.97207C42.8802 8.97262 42.4604 9.14683 42.1508 9.45648C41.8412 9.76613 41.6671 10.1859 41.6667 10.6238V31.6891C41.6671 32.1269 41.8413 32.5467 42.1509 32.8563C42.4605 33.1659 42.8802 33.34 43.3181 33.3405H72.7571C73.195 33.34 73.6148 33.1659 73.9245 32.8563C74.2341 32.5467 74.4083 32.127 74.4089 31.6891V10.6238C74.4083 10.1859 74.2341 9.76609 73.9245 9.45644C73.6148 9.1468 73.195 8.9726 72.7571 8.97207H43.3181Z" fill="#E6E6E6"/>
    <path d="M67.608 17.0468H48.4676C48.2891 17.0457 48.1183 16.974 47.9925 16.8474C47.8666 16.7208 47.796 16.5496 47.796 16.3711C47.796 16.1926 47.8666 16.0213 47.9925 15.8947C48.1183 15.7681 48.2891 15.6964 48.4676 15.6953H67.608C67.6971 15.6948 67.7854 15.7119 67.8678 15.7456C67.9503 15.7793 68.0253 15.829 68.0885 15.8918C68.1517 15.9546 68.2018 16.0292 68.236 16.1115C68.2702 16.1938 68.2879 16.282 68.2879 16.3711C68.2879 16.4601 68.2702 16.5484 68.236 16.6306C68.2018 16.7129 68.1517 16.7875 68.0885 16.8503C68.0253 16.9131 67.9503 16.9628 67.8678 16.9965C67.7854 17.0303 67.6971 17.0473 67.608 17.0468Z" fill="#463BFF"/>
    <path d="M67.608 21.8322H48.4676C48.2891 21.8311 48.1183 21.7594 47.9925 21.6328C47.8666 21.5062 47.796 21.335 47.796 21.1565C47.796 20.978 47.8666 20.8067 47.9925 20.6801C48.1183 20.5535 48.2891 20.4818 48.4676 20.4807H67.608C67.6971 20.4802 67.7854 20.4973 67.8678 20.531C67.9503 20.5647 68.0253 20.6144 68.0885 20.6772C68.1517 20.74 68.2018 20.8146 68.236 20.8969C68.2702 20.9792 68.2879 21.0674 68.2879 21.1565C68.2879 21.2455 68.2702 21.3338 68.236 21.416C68.2018 21.4983 68.1517 21.5729 68.0885 21.6357C68.0253 21.6985 67.9503 21.7482 67.8678 21.7819C67.7854 21.8157 67.6971 21.8327 67.608 21.8322Z" fill="#463BFF"/>
    <path d="M67.608 26.6171H48.4676C48.2891 26.616 48.1183 26.5443 47.9925 26.4177C47.8666 26.2911 47.796 26.1199 47.796 25.9414C47.796 25.7629 47.8666 25.5916 47.9925 25.465C48.1183 25.3384 48.2891 25.2667 48.4676 25.2656H67.608C67.6971 25.2651 67.7854 25.2822 67.8678 25.3159C67.9503 25.3496 68.0253 25.3993 68.0885 25.4621C68.1517 25.5249 68.2018 25.5996 68.236 25.6818C68.2702 25.7641 68.2879 25.8523 68.2879 25.9414C68.2879 26.0304 68.2702 26.1187 68.236 26.2009C68.2018 26.2832 68.1517 26.3578 68.0885 26.4206C68.0253 26.4834 67.9503 26.5331 67.8678 26.5668C67.7854 26.6006 67.6971 26.6176 67.608 26.6171Z" fill="#463BFF"/>
    <path d="M170.441 46.3647L142.167 38.1652C141.402 37.9426 140.757 37.4258 140.374 36.7284C139.99 36.0309 139.898 35.2097 140.119 34.4448L145.986 14.2131C146.209 13.4487 146.726 12.8037 147.423 12.4198C148.121 12.0358 148.942 11.9443 149.707 12.1651L177.981 20.3646C178.745 20.5872 179.39 21.104 179.774 21.8015C180.158 22.4991 180.25 23.3205 180.029 24.0854L174.162 44.3171C173.939 45.0815 173.422 45.7264 172.725 46.1103C172.027 46.4941 171.206 46.5856 170.441 46.3647ZM149.33 13.4631C148.91 13.3416 148.458 13.392 148.074 13.6032C147.691 13.8144 147.407 14.1691 147.284 14.5895L141.417 34.8212C141.296 35.2418 141.346 35.6935 141.557 36.0771C141.768 36.4607 142.123 36.7448 142.543 36.8672L170.817 45.0667C171.238 45.1882 171.69 45.1379 172.073 44.9268C172.457 44.7158 172.741 44.3611 172.864 43.9407L178.731 23.709C178.852 23.2883 178.802 22.8366 178.591 22.4529C178.38 22.0693 178.025 21.7851 177.604 21.6626L149.33 13.4631Z" fill="#E6E6E6"/>
    <path d="M170.41 27.9838L152.027 22.6527C151.855 22.6025 151.71 22.4862 151.624 22.3294C151.538 22.1725 151.518 21.9878 151.568 21.8159C151.617 21.644 151.733 21.4989 151.89 21.4124C152.047 21.326 152.231 21.3052 152.403 21.3547L170.786 26.6858C170.959 26.7357 171.104 26.852 171.19 27.009C171.277 27.166 171.297 27.3509 171.247 27.523C171.197 27.6951 171.081 27.8404 170.924 27.9268C170.767 28.0132 170.582 28.0337 170.41 27.9838H170.41Z" fill="#463BFF"/>
    <path d="M169.077 32.5796L150.694 27.2486C150.609 27.2238 150.529 27.1826 150.46 27.1271C150.391 27.0717 150.333 27.0031 150.29 26.9254C150.248 26.8476 150.221 26.7622 150.211 26.674C150.201 26.5858 150.209 26.4966 150.233 26.4114C150.258 26.3261 150.299 26.2466 150.355 26.1773C150.41 26.108 150.479 26.0504 150.557 26.0076C150.634 25.9648 150.72 25.9377 150.808 25.9279C150.896 25.9182 150.985 25.9259 151.071 25.9506L169.454 31.2816C169.625 31.3318 169.77 31.4481 169.856 31.605C169.943 31.7619 169.963 31.9466 169.913 32.1185C169.863 32.2904 169.747 32.4355 169.59 32.5219C169.434 32.6084 169.249 32.6291 169.077 32.5796Z" fill="#463BFF"/>
    <path d="M167.744 37.1754L149.361 31.8444C149.19 31.7942 149.045 31.6779 148.959 31.521C148.873 31.3641 148.852 31.1795 148.902 31.0075C148.952 30.8356 149.068 30.6905 149.225 30.6041C149.381 30.5176 149.566 30.4969 149.738 30.5464L168.121 35.8775C168.293 35.9274 168.438 36.0436 168.525 36.2006C168.611 36.3576 168.632 36.5425 168.582 36.7147C168.532 36.8868 168.416 37.032 168.259 37.1184C168.101 37.2049 167.917 37.2254 167.744 37.1754Z" fill="#463BFF"/>
    <path d="M354.741 257.728H58.1969V259H354.741V257.728Z" fill="#E6E6E6"/>
    <path d="M230.376 255.739H182.153L183.788 234.489H228.741L230.376 255.739Z" fill="#E6E6E6"/>
    <path d="M233.645 253.287H179.701V258.191H233.645V253.287Z" fill="#E6E6E6"/>
    <path d="M298.623 97.5859H114.315C113.014 97.5859 111.767 98.1026 110.847 99.0223C109.928 99.942 109.411 101.189 109.411 102.49V214.873H303.527V102.49C303.527 101.846 303.4 101.208 303.153 100.613C302.907 100.018 302.546 99.4777 302.09 99.0223C301.635 98.5669 301.094 98.2057 300.499 97.9592C299.904 97.7128 299.267 97.5859 298.623 97.5859H298.623Z" fill="#3F3D56"/>
    <path d="M109.411 214.873V233.262C109.411 233.906 109.538 234.544 109.784 235.139C110.031 235.734 110.392 236.275 110.847 236.73C111.303 237.185 111.843 237.547 112.438 237.793C113.033 238.04 113.671 238.166 114.315 238.166H298.623C299.923 238.166 301.171 237.65 302.09 236.73C303.01 235.81 303.527 234.563 303.527 233.262V214.873H109.411Z" fill="#E6E6E6"/>
    <path d="M294.127 107.803H119.219V205.882H294.127V107.803Z" fill="#E6E6E6"/>
    <path d="M206.673 231.219C209.382 231.219 211.577 229.024 211.577 226.315C211.577 223.607 209.382 221.411 206.673 221.411C203.965 221.411 201.769 223.607 201.769 226.315C201.769 229.024 203.965 231.219 206.673 231.219Z" fill="#3F3D56"/>
    <path d="M124.673 111.945C125.187 111.945 125.603 111.529 125.603 111.015C125.603 110.501 125.187 110.084 124.673 110.084C124.159 110.084 123.742 110.501 123.742 111.015C123.742 111.529 124.159 111.945 124.673 111.945Z" fill="white"/>
    <path d="M128.205 111.945C128.719 111.945 129.136 111.529 129.136 111.015C129.136 110.501 128.719 110.084 128.205 110.084C127.691 110.084 127.275 110.501 127.275 111.015C127.275 111.529 127.691 111.945 128.205 111.945Z" fill="white"/>
    <path d="M131.738 111.945C132.252 111.945 132.668 111.529 132.668 111.015C132.668 110.501 132.252 110.084 131.738 110.084C131.224 110.084 130.807 110.501 130.807 111.015C130.807 111.529 131.224 111.945 131.738 111.945Z" fill="white"/>
    <path d="M289.087 114.177H123.742V196.547H289.087V114.177Z" fill="white"/>
    <path d="M134.733 126.706C134.578 126.706 134.43 126.768 134.32 126.877C134.21 126.987 134.149 127.135 134.149 127.29V156.836C134.149 156.991 134.21 157.14 134.32 157.25C134.43 157.359 134.578 157.421 134.733 157.421H168.854C169.009 157.421 169.158 157.359 169.267 157.25C169.377 157.14 169.439 156.991 169.439 156.836V127.29C169.439 127.135 169.377 126.987 169.267 126.877C169.158 126.768 169.009 126.706 168.854 126.706H134.733Z" fill="#E6E6E6"/>
    <path d="M189.519 126.801C189.364 126.801 189.215 126.863 189.105 126.972C188.996 127.082 188.934 127.231 188.934 127.386V156.837C188.934 156.992 188.996 157.14 189.105 157.25C189.215 157.359 189.364 157.421 189.519 157.421H223.531C223.686 157.421 223.834 157.359 223.944 157.25C224.054 157.14 224.115 156.992 224.115 156.837V127.386C224.115 127.231 224.054 127.082 223.944 126.972C223.834 126.863 223.686 126.801 223.531 126.801H189.519Z" fill="#E6E6E6"/>
    <path d="M243.73 126.492C243.575 126.493 243.426 126.554 243.317 126.664C243.207 126.773 243.146 126.922 243.145 127.077V156.837C243.146 156.992 243.207 157.14 243.317 157.25C243.426 157.359 243.575 157.421 243.73 157.421H278.096C278.251 157.421 278.399 157.359 278.509 157.25C278.618 157.14 278.68 156.992 278.68 156.837V127.077C278.68 126.922 278.618 126.773 278.509 126.664C278.399 126.554 278.251 126.493 278.096 126.492H243.73Z" fill="#E6E6E6"/>
    <path d="M135.357 172.046C135.037 172.047 134.73 172.174 134.504 172.401C134.278 172.627 134.151 172.935 134.151 173.255C134.151 173.575 134.278 173.882 134.504 174.108C134.73 174.335 135.037 174.463 135.357 174.463H167.437C167.758 174.463 168.064 174.335 168.291 174.108C168.517 173.882 168.644 173.575 168.644 173.255C168.644 172.935 168.517 172.627 168.291 172.401C168.064 172.174 167.758 172.047 167.437 172.046H135.357Z" fill="#E6E6E6"/>
    <path d="M135.357 177.795C135.037 177.795 134.73 177.923 134.504 178.149C134.278 178.376 134.151 178.683 134.151 179.003C134.151 179.323 134.278 179.63 134.504 179.857C134.73 180.084 135.037 180.211 135.357 180.212H149.801C150.121 180.211 150.428 180.084 150.654 179.857C150.88 179.63 151.007 179.323 151.007 179.003C151.007 178.683 150.88 178.376 150.654 178.149C150.428 177.923 150.121 177.795 149.801 177.795H135.357Z" fill="#463BFF"/>
    <path d="M190.731 172.046C190.411 172.047 190.104 172.174 189.878 172.401C189.652 172.627 189.525 172.935 189.525 173.255C189.525 173.575 189.652 173.882 189.878 174.108C190.104 174.335 190.411 174.463 190.731 174.463H222.812C223.132 174.463 223.439 174.335 223.665 174.108C223.891 173.882 224.018 173.575 224.018 173.255C224.018 172.935 223.891 172.627 223.665 172.401C223.439 172.174 223.132 172.047 222.812 172.046H190.731Z" fill="#E6E6E6"/>
    <path d="M190.731 177.795C190.411 177.795 190.104 177.923 189.878 178.149C189.652 178.376 189.525 178.683 189.525 179.003C189.525 179.323 189.652 179.63 189.878 179.857C190.104 180.084 190.411 180.211 190.731 180.212H205.176C205.496 180.211 205.802 180.084 206.029 179.857C206.255 179.63 206.382 179.323 206.382 179.003C206.382 178.683 206.255 178.376 206.029 178.149C205.802 177.923 205.496 177.795 205.176 177.795H190.731Z" fill="#463BFF"/>
    <path d="M244.722 172.046C244.401 172.047 244.095 172.174 243.868 172.401C243.642 172.627 243.515 172.935 243.515 173.255C243.515 173.575 243.642 173.882 243.868 174.108C244.095 174.335 244.401 174.463 244.722 174.463H276.802C277.122 174.463 277.429 174.335 277.655 174.108C277.881 173.882 278.008 173.575 278.008 173.255C278.008 172.935 277.881 172.627 277.655 172.401C277.429 172.174 277.122 172.047 276.802 172.046H244.722Z" fill="#E6E6E6"/>
    <path d="M135.357 166.109C135.037 166.11 134.73 166.238 134.504 166.464C134.278 166.691 134.151 166.998 134.151 167.318C134.151 167.638 134.278 167.945 134.504 168.172C134.73 168.398 135.037 168.526 135.357 168.526H167.437C167.758 168.526 168.064 168.398 168.291 168.172C168.517 167.945 168.644 167.638 168.644 167.318C168.644 166.998 168.517 166.691 168.291 166.464C168.064 166.238 167.758 166.11 167.437 166.109H135.357Z" fill="#E6E6E6"/>
    <path d="M190.731 166.109C190.411 166.11 190.104 166.238 189.878 166.464C189.652 166.691 189.525 166.998 189.525 167.318C189.525 167.638 189.652 167.945 189.878 168.172C190.104 168.398 190.411 168.526 190.731 168.526H222.812C223.132 168.526 223.439 168.398 223.665 168.172C223.891 167.945 224.018 167.638 224.018 167.318C224.018 166.998 223.891 166.691 223.665 166.464C223.439 166.238 223.132 166.11 222.812 166.109H190.731Z" fill="#E6E6E6"/>
    <path d="M244.722 166.109C244.401 166.11 244.095 166.238 243.868 166.464C243.642 166.691 243.515 166.998 243.515 167.318C243.515 167.638 243.642 167.945 243.868 168.172C244.095 168.398 244.401 168.526 244.722 168.526H276.802C277.122 168.526 277.429 168.398 277.655 168.172C277.881 167.945 278.008 167.638 278.008 167.318C278.008 166.998 277.881 166.691 277.655 166.464C277.429 166.238 277.122 166.11 276.802 166.109H244.722Z" fill="#E6E6E6"/>
    <path d="M244.722 177.795C244.401 177.795 244.095 177.923 243.868 178.149C243.642 178.376 243.515 178.683 243.515 179.003C243.515 179.323 243.642 179.63 243.868 179.857C244.095 180.084 244.401 180.211 244.722 180.212H259.165C259.486 180.211 259.792 180.084 260.019 179.857C260.245 179.63 260.372 179.323 260.372 179.003C260.372 178.683 260.245 178.376 260.019 178.149C259.792 177.923 259.486 177.795 259.165 177.795H244.722Z" fill="#463BFF"/>
</svg>
