<svg width="301" height="263" viewBox="0 0 301 263" fill="none" xmlns="http://www.w3.org/2000/svg">
  <path d="M225.304 166.425H224.765V236.413H225.304V166.425Z" fill="#3F3D56"/>
  <path d="M225.034 93.1519V165.547C227.545 158.333 231.298 151.99 235.995 147.024C236.089 146.922 236.185 146.822 236.282 146.724C237.237 145.73 238.228 144.797 239.255 143.925C239.321 143.87 239.388 143.813 239.455 143.76C245.631 138.578 252.804 135.833 260.125 135.849H301V93.1519H225.034Z" fill="#D0CDE1"/>
  <path d="M228.191 107.818L279.594 107.818V105.755L228.191 105.755V107.818Z" fill="#F2F2F2"/>
  <path d="M228.191 113.054L279.594 113.054V110.991L228.191 110.991V113.054Z" fill="#F2F2F2"/>
  <path d="M228.191 118.289L279.594 118.289V116.227L228.191 116.227V118.289Z" fill="#F2F2F2"/>
  <path d="M288.262 105.597H297.892V118.289H288.262V105.597ZM297.652 105.914H288.503V117.972H297.652V105.914Z" fill="#F2F2F2"/>
  <path d="M293.095 114.76L290.094 110.146L290.565 109.614L293.045 113.426L299.64 100.981L300.148 101.449L293.095 114.76Z" fill="#463BFF"/>
  <path d="M225.034 174.596C228.458 174.596 231.234 170.938 231.234 166.425C231.234 161.912 228.458 158.254 225.034 158.254C221.61 158.254 218.834 161.912 218.834 166.425C218.834 170.938 221.61 174.596 225.034 174.596Z" fill="#463BFF"/>
  <path d="M102.113 165.715H101.574V235.703H102.113V165.715Z" fill="#3F3D56"/>
  <path d="M132.304 124.859H131.765V194.847H132.304V124.859Z" fill="#3F3D56"/>
  <path d="M240.151 239.255H80.5692C80.5692 239.255 77.3345 188.463 96.4735 187.886C115.612 187.309 113.456 210.396 137.447 178.651C161.438 146.907 190.551 148.638 194.325 167.396C198.099 186.155 187.047 201.161 207.264 196.544C227.481 191.926 256.594 204.047 240.151 239.255Z" fill="#463BFF"/>
  <path d="M157.666 239.267L157.128 239.244C158.384 205.803 164.926 184.317 170.192 172.181C175.911 159.004 181.421 153.669 181.476 153.617L181.835 154.048C181.78 154.1 176.334 159.382 170.661 172.47C165.424 184.554 158.918 205.952 157.666 239.267Z" fill="#F2F2F2"/>
  <path d="M215.423 239.336L214.905 239.174C221.137 216.274 235.813 201.815 235.961 201.672L236.323 202.099C236.177 202.241 221.611 216.598 215.423 239.336Z" fill="#F2F2F2"/>
  <path d="M105.704 239.295L105.17 239.215C106.876 226.529 104.997 213.458 99.8886 202.473C96.0161 194.08 91.5977 189.497 91.5534 189.451L91.9265 189.035C91.9713 189.081 96.4581 193.735 100.372 202.217C105.528 213.302 107.425 226.492 105.704 239.295Z" fill="#F2F2F2"/>
  <path d="M162.676 242.73C224.832 242.73 275.219 241.188 275.219 239.285C275.219 237.383 224.832 235.84 162.676 235.84C100.52 235.84 50.1332 237.383 50.1332 239.285C50.1332 241.188 100.52 242.73 162.676 242.73Z" fill="#3F3D56"/>
  <path d="M162.676 253.066C205.707 253.066 240.59 251.998 240.59 250.681C240.59 249.364 205.707 248.296 162.676 248.296C119.645 248.296 84.7617 249.364 84.7617 250.681C84.7617 251.998 119.645 253.066 162.676 253.066Z" fill="#3F3D56"/>
  <path d="M162.712 262.962C197.814 262.962 226.27 262.091 226.27 261.016C226.27 259.942 197.814 259.071 162.712 259.071C127.609 259.071 99.1535 259.942 99.1535 261.016C99.1535 262.091 127.609 262.962 162.712 262.962Z" fill="#3F3D56"/>
  <path d="M197.93 18.7583H175.127V56.0969H197.93V18.7583Z" fill="#2F2E41"/>
  <path d="M208.293 116.568C208.293 116.568 215.919 131.185 212.106 134.84C208.293 138.494 204.481 118.852 204.481 118.852L208.293 116.568Z" fill="#FFB8B8"/>
  <path d="M209.68 118.395L203.787 121.593L194.776 85.9618L194.928 84.3401L198.242 49.4174C198.242 49.4174 200.574 49.1387 201.756 51.2035C202.131 51.8843 202.354 52.6896 202.401 53.5286C202.748 58.0967 201.015 83.2209 201.015 83.2209C201.015 83.2209 201.361 85.9618 201.708 86.8754C202.054 87.789 202.748 87.3322 202.401 88.7026C202.054 90.073 201.361 90.073 201.708 90.5298C201.982 90.9465 202.214 91.4069 202.401 91.9002L209.68 118.395Z" fill="#D0CDE1"/>
  <path d="M159.769 134.84L149.717 165.903C149.717 165.903 143.825 182.347 140.705 203.36L136.893 217.521L143.478 219.349L145.211 215.694L146.598 207.015C146.598 207.015 158.035 184.175 158.729 172.755L177.792 138.494L159.769 134.84Z" fill="#FFB8B8"/>
  <path d="M186.111 138.037V171.841C186.111 171.841 184.031 192.397 184.724 201.99V220.262H189.923C189.923 220.262 189.923 212.497 190.963 209.756C192.003 207.015 197.895 178.693 196.162 168.643L201.708 134.84L186.111 138.037Z" fill="#FFB8B8"/>
  <path d="M186.457 35.2563C191.626 35.2563 195.816 29.7343 195.816 22.9226C195.816 16.1109 191.626 10.5889 186.457 10.5889C181.289 10.5889 177.099 16.1109 177.099 22.9226C177.099 29.7343 181.289 35.2563 186.457 35.2563Z" fill="#FFB8B8"/>
  <path d="M179.525 27.0339C179.525 27.0339 179.872 41.1948 178.832 43.0221C177.792 44.8493 191.656 47.5901 191.656 47.5901C191.656 47.5901 187.15 35.7132 190.27 31.602L179.525 27.0339Z" fill="#FFB8B8"/>
  <path opacity="0.1" d="M197.202 74.9985C197.202 74.9985 196.855 79.1097 197.895 80.937C198.935 82.7642 196.682 84.363 196.682 84.363C195.971 84.2077 196.37 84.3585 194.928 84.3402L198.242 49.4172C198.242 49.4172 198.966 48.4945 200.148 50.5592C200.169 53.9442 198.588 62.6646 198.588 62.6646C201.015 70.8872 197.202 74.9985 197.202 74.9985Z" fill="black"/>
  <path d="M190.616 39.8243C190.616 39.8243 179.525 36.1699 178.832 36.6267C178.139 37.0835 177.792 42.1083 177.792 42.1083C177.792 42.1083 166.354 40.7379 167.394 45.7628C168.434 50.7876 173.286 85.5049 173.286 85.5049C173.286 85.5049 193.043 83.6777 197.202 84.5913C197.397 83.9968 197.467 83.3444 197.407 82.7018C197.346 82.0592 197.155 81.4498 196.855 80.9368C195.815 79.1096 196.162 74.9983 196.162 74.9983C196.162 74.9983 199.975 70.8871 197.549 62.6646C197.549 62.6646 202.054 51.2445 200.321 49.874C198.588 48.5036 192.003 45.7628 192.003 45.7628C192.003 45.7628 192.003 39.3675 190.616 39.8243Z" fill="#D0CDE1"/>
  <path d="M173.633 84.1346L167.741 112.913C167.741 112.913 152.49 133.012 158.036 136.21C163.581 139.408 185.071 144.889 188.883 141.235C192.696 137.58 190.27 136.667 195.122 137.58C199.975 138.494 208.64 137.58 208.64 133.926C208.64 130.272 196.509 82.7642 196.509 82.7642L173.633 84.1346Z" fill="#2F2E41"/>
  <path d="M142.438 214.781C142.438 214.781 137.932 212.04 136.893 213.867C135.853 215.694 125.801 238.078 131.347 239.448C136.893 240.819 142.438 237.164 143.131 233.053C143.825 228.942 147.984 221.633 147.984 221.633C147.984 221.633 152.476 214.751 146.417 208.142C146.417 208.142 145.211 214.781 142.438 214.781Z" fill="#2F2E41"/>
  <path d="M182.644 219.349C182.644 219.349 187.15 213.41 190.616 219.349C190.616 219.349 195.816 240.819 187.844 240.362C179.872 239.905 180.911 235.794 180.911 235.794L182.644 219.349Z" fill="#2F2E41"/>
  <path d="M157.342 115.197C157.342 115.197 151.103 133.926 155.609 134.383C160.115 134.84 161.155 117.024 161.155 117.024L157.342 115.197Z" fill="#FFB8B8"/>
  <path d="M170.34 42.3367C170.34 42.3367 165.314 43.0219 164.968 46.6763C164.621 50.3308 162.195 78.1959 162.195 78.1959L155.956 116.568L162.541 118.395C162.541 118.395 167.047 94.1841 169.474 90.5296L171.553 65.4053L170.34 42.3367Z" fill="#D0CDE1"/>
  <path d="M188.015 3.29024C188.015 3.29024 179.032 2.5563 176.959 9.91839C174.886 17.2805 171.258 21.1456 171.258 21.1456C171.258 21.1456 165.544 26.3809 168.401 35.7266C168.401 35.7266 159.511 43.6 165.385 50.5939C165.385 50.5939 165.039 57.5879 168.494 62.3733C168.494 62.3733 171.258 64.2138 170.222 65.3181C169.185 66.4224 177.132 65.6862 176.441 55.7474C175.75 45.8086 180.414 38.8076 180.414 38.8076C180.414 38.8076 175.923 25.9215 177.996 21.5042C179.254 18.8223 179.795 16.8224 180.84 15.6649C181.422 15.0357 181.961 14.3416 182.453 13.5903C182.917 12.8161 183.548 12.2446 184.264 11.9507C184.979 11.6568 185.744 11.6541 186.461 11.943C189.57 13.0473 190.261 16.3602 190.261 16.3602C190.261 16.3602 192.507 24.2745 196.307 27.9555C200.108 31.6366 193.371 38.0784 193.371 38.0784C193.371 38.0784 194.542 45.6627 197.584 50.1529C200.626 54.6431 196.707 58.5571 196.48 59.0603C195.962 60.209 193.892 67.4625 202.442 67.4946C202.442 67.4946 204.427 62.0052 207.191 58.6922C209.955 55.3793 207.882 45.8086 207.882 45.8086C207.882 45.8086 212.028 42.4956 207.536 34.3973C207.536 34.3973 208.918 27.0353 205.118 22.2499C205.118 22.2499 199.762 0.713506 188.015 3.29024Z" fill="#2F2E41"/>
  <path d="M177.823 22.3735C178.3 22.3735 178.687 21.558 178.687 20.552C178.687 19.546 178.3 18.7305 177.823 18.7305C177.346 18.7305 176.959 19.546 176.959 20.552C176.959 21.558 177.346 22.3735 177.823 22.3735Z" fill="#FFB8B8"/>
  <path d="M132.035 0V125.829C127.672 113.29 121.149 102.267 112.985 93.6345C112.82 93.4568 112.653 93.2827 112.486 93.1122C110.826 91.3856 109.103 89.7644 107.319 88.2486C107.203 88.1527 107.087 88.0532 106.971 87.9608C96.2355 78.9546 83.7692 74.184 71.0435 74.212H0V0H132.035Z" fill="#3F3D56"/>
  <path opacity="0.1" d="M16.4907 29.0757H5.61049V43.4148H16.4907V29.0757Z" fill="black"/>
  <path d="M126.548 21.9058H37.2048V25.4905H126.548V21.9058Z" fill="#F2F2F2"/>
  <path d="M126.548 31.0059H37.2048V34.5906H126.548V31.0059Z" fill="#F2F2F2"/>
  <path d="M126.548 40.106H37.2048V43.6904H126.548V40.106Z" fill="#F2F2F2"/>
  <path d="M22.14 43.6904H5.40125V21.6301H22.14V43.6904ZM5.81971 43.1389H21.7215V22.1816H5.81971V43.1389Z" fill="#F2F2F2"/>
  <path d="M13.7402 37.5557L8.52417 29.538L9.34283 28.6132L13.6529 35.2386L25.1153 13.6084L25.9994 14.422L13.7402 37.5557Z" fill="#463BFF"/>
  <path d="M101.844 92.4412V164.836C99.3334 157.622 95.5804 151.28 90.8834 146.313C90.7888 146.211 90.6926 146.111 90.5965 146.013C89.6411 145.02 88.6501 144.087 87.6234 143.215C87.5567 143.16 87.49 143.102 87.4233 143.049C81.2467 137.867 74.0743 135.123 66.7526 135.139H25.8781V92.4412H101.844Z" fill="#D0CDE1"/>
  <path opacity="0.1" d="M35.3659 109.17H29.1061V117.42H35.3659V109.17Z" fill="black"/>
  <path d="M98.6868 105.045H47.2837V107.107H98.6868V105.045Z" fill="#F2F2F2"/>
  <path d="M98.6868 110.281H47.2837V112.343H98.6868V110.281Z" fill="#F2F2F2"/>
  <path d="M98.6868 115.516H47.2837V117.579H98.6868V115.516Z" fill="#F2F2F2"/>
  <path d="M38.6162 117.579H28.9857V104.886H38.6162V117.579ZM29.2264 117.261H38.3755V105.203H29.2264V117.261Z" fill="#F2F2F2"/>
  <path d="M33.7834 114.049L30.7826 109.436L31.2535 108.904L33.7332 112.716L40.3281 100.271L40.8368 100.739L33.7834 114.049Z" fill="#463BFF"/>
  <path d="M132.035 136.227C136.799 136.227 140.661 131.137 140.661 124.859C140.661 118.58 136.799 113.49 132.035 113.49C127.271 113.49 123.409 118.58 123.409 124.859C123.409 131.137 127.271 136.227 132.035 136.227Z" fill="#463BFF"/>
  <path d="M101.844 173.886C105.268 173.886 108.044 170.227 108.044 165.715C108.044 161.202 105.268 157.543 101.844 157.543C98.4197 157.543 95.6439 161.202 95.6439 165.715C95.6439 170.227 98.4197 173.886 101.844 173.886Z" fill="#463BFF"/>
</svg>
