<svg width="298" height="249" viewBox="0 0 298 249" fill="none" xmlns="http://www.w3.org/2000/svg">
  <path d="M241.379 234.387H60.9957L61.077 215.262C61.2829 166.869 99.9091 126.993 148.296 126.17C148.818 126.161 149.342 126.157 149.866 126.157H149.867C160.754 126.149 171.556 128.089 181.76 131.887C215.997 144.637 238.977 177.032 240.506 213.535L241.379 234.387Z" fill="#463BFF"/>
  <path d="M297.168 234.387H0V235.131H297.168V234.387Z" fill="#2F2E41"/>
  <path d="M148.133 148.847L156.081 154.628L164.029 222.549H182.816L176.313 145.234L150.3 135.118L148.133 148.847Z" fill="#2F2E41"/>
  <path d="M114.894 127.17C114.894 127.17 112.727 151.737 121.398 152.46C130.068 153.182 163.307 145.234 163.307 145.234L179.203 201.595L203.048 189.311C203.048 189.311 188.597 125.725 179.926 122.112C171.255 118.499 142.352 111.273 142.352 111.273L121.398 114.886L114.894 127.17Z" fill="#2F2E41"/>
  <path d="M166.92 221.104C166.92 221.104 162.584 237.723 165.474 239.168C167.213 240.037 168.901 241.002 170.532 242.059V239.168C170.532 239.168 174.145 242.781 174.145 245.671C174.145 248.562 193.655 249.284 193.655 245.671C193.655 242.059 192.932 237.723 189.319 235.555C185.706 233.388 181.371 221.104 181.371 221.104H166.92Z" fill="#2F2E41"/>
  <path d="M187.874 191.479L189.319 205.208L194.377 213.878L206.661 200.149L197.267 184.976L187.874 191.479Z" fill="#2F2E41"/>
  <path d="M199.435 205.207C199.435 205.207 202.096 196.11 204.74 197.046C207.383 197.982 217.499 207.375 217.499 207.375L224.725 211.711C224.725 211.711 239.177 213.156 234.841 217.491C230.506 221.827 214.609 227.607 207.383 224.717C200.158 221.827 198.713 221.104 198.713 221.104L196.545 222.549L187.874 220.381L189.319 205.207C189.319 205.207 191.487 211.711 199.435 205.207Z" fill="#2F2E41"/>
  <path d="M139.462 36.8485C148.64 36.8485 156.081 29.4079 156.081 20.2294C156.081 11.0509 148.64 3.61029 139.462 3.61029C130.283 3.61029 122.843 11.0509 122.843 20.2294C122.843 29.4079 130.283 36.8485 139.462 36.8485Z" fill="#9F616A"/>
  <path d="M128.985 29.9842C128.985 29.9842 130.43 45.1581 126.094 45.1581C121.759 45.1581 126.817 63.945 138.378 63.945C149.939 63.945 154.275 41.5453 154.275 41.5453C154.275 41.5453 146.326 38.655 147.771 29.2616C149.217 19.8682 128.985 29.9842 128.985 29.9842Z" fill="#9F616A"/>
  <path d="M127.833 44.0006L121.759 46.6033L105.273 53.5779C104.609 53.8591 104.053 54.3476 103.688 54.9705C103.324 55.5935 103.171 56.3175 103.251 57.0347L109.475 112.357C109.475 112.357 102.972 126.086 113.088 126.809L114.533 131.867L126.094 118.138L169.449 116.693L170.171 46.6033L150.334 38.7645C150.334 38.7645 147.636 53.6817 127.833 44.0006Z" fill="#3F3D56"/>
  <path d="M107.669 55.6354L104.998 54.8725C104.699 54.7869 104.385 54.7659 104.077 54.8107C103.769 54.8555 103.474 54.9652 103.211 55.1325C102.948 55.2998 102.724 55.5209 102.553 55.7812C102.382 56.0415 102.269 56.3351 102.22 56.6426L95.1339 101.09C94.5812 104.382 95.1103 107.764 96.6419 110.729C98.8313 114.875 103.378 118.635 112.727 114.164L119.23 67.1965L107.669 55.6354Z" fill="#3F3D56"/>
  <path d="M161.862 45.5194L170.532 46.9645L194.377 80.2028L196.545 85.9833L210.274 81.6479C210.274 81.6479 209.551 88.1511 216.777 87.4285C216.777 87.4285 208.106 111.273 190.042 104.048C171.978 96.8219 166.197 75.1448 166.197 75.1448L161.862 45.5194Z" fill="#3F3D56"/>
  <path d="M171.978 59.971L139.462 46.9644L138.017 51.2999L153.191 64.3062L171.978 59.971Z" fill="#CCCCCC"/>
  <path d="M129.456 21.2889C130.07 21.125 130.16 20.3101 130.18 19.6751C130.29 16.2748 132.338 12.7857 135.593 11.7958C136.842 11.4533 138.15 11.3813 139.429 11.5847C141.254 11.8279 143.017 12.416 144.623 13.3177C145.471 13.7943 146.302 14.3683 147.264 14.5139C147.899 14.6101 150.649 15.4095 151.281 15.522C152.671 15.7694 153.963 17.0133 155.298 16.5504C156.574 16.1076 156.856 14.455 156.887 13.1044C156.958 10.0273 154.622 5.76862 152.564 3.47954C151.003 1.74245 148.652 0.940591 146.354 0.523637C143.669 0.0922822 140.949 -0.073219 138.232 0.0295379C134.554 0.0951306 130.774 0.379001 127.458 1.97034C124.141 3.56169 121.356 6.72885 121.197 10.4038C121.164 11.1693 121.243 11.938 121.178 12.7016C121.021 14.5642 120.032 16.2466 119.568 18.0574C119.237 19.386 119.187 20.7693 119.423 22.1183C119.658 23.4672 120.174 24.7518 120.937 25.8892C122.168 27.7005 127.09 29.3448 127.018 31.5335C127.908 30.6119 125.81 29.6841 126.7 28.7625C127.098 28.4581 127.38 28.0263 127.499 27.539C127.618 27.0517 127.566 26.5385 127.351 26.085L126.407 22.4004C126.234 21.7257 126.064 20.9955 126.325 20.3499C127.338 17.8476 128.432 21.5621 129.456 21.2889Z" fill="#2F2E41"/>
  <path d="M138.017 51.2999L124.288 104.77L177.758 123.557L208.829 97.5443L228.338 39.0164L196.545 62.1386L138.017 51.2999Z" fill="#F2F2F2"/>
  <path d="M140.638 57.0925L140.454 57.7911L192.479 71.5199L192.663 70.8214L140.638 57.0925Z" fill="#E6E6E6"/>
  <path d="M139.193 60.7054L139.008 61.404L191.034 75.1328L191.218 74.4343L139.193 60.7054Z" fill="#E6E6E6"/>
  <path d="M138.47 64.3183L138.286 65.0168L190.311 78.7456L190.495 78.0471L138.47 64.3183Z" fill="#E6E6E6"/>
  <path d="M137.748 67.9311L137.563 68.6296L189.588 82.3585L189.773 81.66L137.748 67.9311Z" fill="#E6E6E6"/>
  <path d="M137.025 71.544L136.841 72.2425L188.866 85.9713L189.05 85.2728L137.025 71.544Z" fill="#E6E6E6"/>
  <path d="M136.302 75.1568L136.118 75.8553L188.143 89.5842L188.328 88.8857L136.302 75.1568Z" fill="#E6E6E6"/>
  <path d="M135.58 78.7696L135.396 79.4682L187.421 93.197L187.605 92.4985L135.58 78.7696Z" fill="#E6E6E6"/>
  <path d="M134.857 82.3825L134.673 83.0811L186.698 96.8099L186.882 96.1114L134.857 82.3825Z" fill="#E6E6E6"/>
  <path d="M134.135 85.9954L133.95 86.6939L185.975 100.423L186.16 99.7242L134.135 85.9954Z" fill="#E6E6E6"/>
  <path d="M115.985 90.6322C115.985 90.6322 132.236 80.9254 139.462 87.4285C146.688 93.9316 118.507 103.325 118.507 103.325L115.985 90.6322Z" fill="#9F616A"/>
  <path d="M98.2753 95.3767L119.23 87.4285C119.23 87.4285 115.617 101.157 122.843 101.88L112.727 114.164C112.727 114.164 92.4947 114.164 98.2753 95.3767Z" fill="#3F3D56"/>
  <path d="M153.417 95.0803L181.222 104.452L174.642 118.795L146.836 109.424L153.417 95.0803Z" fill="#E6E6E6"/>
  <path d="M202.687 64.6676L223.641 48.7708L217.861 68.2805L196.184 84.1769L202.687 64.6676Z" fill="#CCCCCC"/>
  <path d="M213.307 75.2184L192.352 91.1144L192.789 91.6902L213.744 75.7943L213.307 75.2184Z" fill="#E6E6E6"/>
  <path d="M211.862 83.1668L190.907 99.0627L191.344 99.6385L212.299 83.7425L211.862 83.1668Z" fill="#E6E6E6"/>
  <path d="M214.609 88.151C214.609 88.151 232.673 77.3125 221.112 72.9771C209.551 68.6416 209.551 85.2608 209.551 85.2608C209.551 85.2608 208.829 88.8736 214.609 88.151Z" fill="#9F616A"/>
  <path opacity="0.1" d="M108.753 63.9449L108.03 92.1253L119.23 88.929L110.198 89.2347L108.753 63.9449Z" fill="black"/>
  <path d="M29.906 221.643C32.1647 229.992 39.9015 235.164 39.9015 235.164C39.9015 235.164 43.9761 226.797 41.7173 218.448C39.4585 210.098 31.7218 204.927 31.7218 204.927C31.7218 204.927 27.6472 213.293 29.906 221.643Z" fill="#8985A8"/>
  <path d="M33.2251 219.848C39.4231 225.882 40.1802 235.157 40.1802 235.157C40.1802 235.157 30.8882 234.649 24.6901 228.616C18.492 222.582 17.735 213.307 17.735 213.307C17.735 213.307 27.027 213.815 33.2251 219.848Z" fill="#3F3D56"/>
  <path d="M243.983 141.034H232.825V152.191H243.983V141.034Z" fill="#F2F2F2"/>
  <path d="M199.352 14.5793H188.194V25.737H199.352V14.5793Z" fill="#F2F2F2"/>
  <path d="M59.1361 127.644C62.2172 127.644 64.7149 125.147 64.7149 122.066C64.7149 118.984 62.2172 116.487 59.1361 116.487C56.0549 116.487 53.5572 118.984 53.5572 122.066C53.5572 125.147 56.0549 127.644 59.1361 127.644Z" fill="#F2F2F2"/>
</svg>
