<svg width="235" height="24" viewBox="0 0 235 24" fill="none" xmlns="http://www.w3.org/2000/svg">
    <path d="M12.8474 24C15.4089 24 17.6542 23.4308 19.6623 22.2765C20.4687 21.818 20.5162 20.7902 19.8363 20.047L19.4726 19.6517C19.0298 19.1616 18.3816 19.0983 17.7807 19.4146C16.326 20.1735 14.6974 20.5688 12.879 20.5688C10.3808 20.5688 8.30943 19.8099 6.72825 18.2445C5.11545 16.6791 4.34067 14.5762 4.32486 12.0621C4.30904 9.65868 5.09963 7.63477 6.665 6.0694C8.262 4.4724 10.3333 3.69762 12.8316 3.69762C14.6342 3.68181 16.2786 4.09292 17.7807 4.88351C18.3816 5.19975 19.0298 5.1365 19.4726 4.64633L19.8995 4.18779C20.5478 3.49207 20.4213 2.43268 19.5516 1.94251C17.5752 0.851496 15.3457 0.282271 12.8474 0.282271C9.43207 0.282271 6.58595 1.42072 4.30904 3.69762C2.03214 5.95871 0.877879 8.72578 0.862067 12.0937C0.846255 15.5249 2.00052 18.3552 4.29323 20.6005C6.58595 22.8615 9.41626 24 12.8474 24ZM45.657 20.6005C47.918 18.3394 49.0565 15.5407 49.0565 12.1411C49.0565 8.74159 47.918 5.9429 45.657 3.68181C43.3959 1.42072 40.5972 0.282271 37.1976 0.282271C33.7981 0.282271 30.9994 1.42072 28.7383 3.68181C26.4772 5.9429 25.3388 8.74159 25.3388 12.1411C25.3388 15.5407 26.4772 18.3394 28.7383 20.6005C30.9836 22.8615 33.7981 24 37.1976 24C40.5972 24 43.3959 22.8615 45.657 20.6005ZM43.301 5.91128C44.8505 7.60314 45.6253 9.6903 45.6253 12.1411C45.6253 14.592 44.8505 16.6791 43.301 18.371C41.7198 20.0787 39.6643 20.9167 37.2134 20.9167C34.7468 20.9167 32.6754 20.0787 31.0943 18.371C29.5447 16.6791 28.7699 14.592 28.7699 12.1411C28.7699 9.6903 29.5447 7.60314 31.0943 5.91128C32.6754 4.2036 34.731 3.36558 37.1818 3.36558C39.6485 3.36558 41.7198 4.2036 43.301 5.91128ZM65.3269 23.1778L73.5648 2.57498C74.0392 1.40491 73.2802 0.282271 72.0153 0.282271H71.7306C71.1772 0.282271 70.7187 0.582695 70.5131 1.10449L62.9393 20.3L55.4761 1.1203C55.2705 0.614319 54.8278 0.282271 54.2744 0.282271H53.3573C52.4244 0.282271 51.9817 1.40491 52.456 2.57498L60.7098 23.1778C60.9154 23.6996 61.3897 24 61.9273 24H64.1093C64.6469 24 65.1213 23.6996 65.3269 23.1778ZM80.9015 24H81.4549C82.2929 24 82.9096 23.3833 82.9096 22.5453V1.72115C82.9096 0.88312 82.2929 0.266459 81.4549 0.266459H80.9015C80.0635 0.266459 79.4468 0.88312 79.4468 1.72115V22.5453C79.4468 23.3833 80.0635 24 80.9015 24ZM97.3616 24C104.856 24 108.509 20.1894 108.509 12.1411C108.509 4.07711 104.856 0.266459 97.3616 0.266459H89.7561C88.9181 0.266459 88.3014 0.88312 88.3014 1.72115V22.5453C88.3014 23.3833 88.9181 24 89.7561 24H97.3616ZM97.3616 3.71344C102.453 3.71344 105.03 6.70187 105.03 12.1411C105.03 17.5804 102.453 20.5846 97.3616 20.5846H91.78V3.71344H97.3616ZM122.74 24C130.124 24 133.808 20.0154 133.808 12.1411C133.808 4.25104 130.124 0.266459 122.74 0.266459H115.055C114.217 0.266459 113.6 0.88312 113.6 1.72115V22.5453C113.6 23.3833 114.217 24 115.055 24H122.74ZM122.74 5.15231C126.866 5.15231 128.954 7.46084 128.954 12.1411C128.954 16.8214 126.866 19.1458 122.74 19.1458H118.455V5.15231H122.74ZM140.544 24H142.141C142.979 24 143.595 23.3833 143.595 22.5453V1.72115C143.595 0.88312 142.979 0.266459 142.141 0.266459H140.544C139.706 0.266459 139.089 0.88312 139.089 1.72115V22.5453C139.089 23.3833 139.706 24 140.544 24ZM158.949 24C162.064 24 164.767 23.0987 167.202 21.1855C167.503 20.9483 167.661 20.6005 167.661 20.2368V11.1766C167.661 10.3386 167.044 9.72193 166.206 9.72193H160.229C159.391 9.72193 158.775 10.3386 158.775 11.1766V12.8052C158.775 13.6433 159.407 14.2599 160.245 14.2599L162.823 14.2441V18.1496C161.763 18.8612 160.546 19.13 158.98 19.13C156.877 19.13 155.185 18.5133 153.905 17.2325C152.608 15.9518 151.944 14.2283 151.944 12.0621C151.928 10.0224 152.592 8.37792 153.873 7.08135C155.154 5.78478 156.83 5.1365 158.949 5.1365C160.53 5.12069 161.969 5.48436 163.502 6.38563C164.103 6.73349 164.799 6.67025 165.273 6.16427L166.586 4.70958C167.218 4.01386 167.139 3.01772 166.349 2.49593C164.008 0.962179 161.621 0.282271 158.949 0.282271C155.581 0.282271 152.782 1.42072 150.505 3.69762C148.276 5.95871 147.106 8.75741 147.106 12.0937C147.09 15.4774 148.228 18.3552 150.489 20.6005C152.782 22.8615 155.581 24 158.949 24ZM177.243 4.82026H188.359C189.197 4.82026 189.813 4.2036 189.813 3.36558V1.73696C189.813 0.898932 189.197 0.282271 188.359 0.282271L173.843 0.298082C173.005 0.298082 172.389 0.914743 172.389 1.75277V22.5453C172.389 23.3833 173.005 24 173.843 24H188.327C189.165 24 189.782 23.3833 189.782 22.5453V20.9167C189.782 20.0787 189.165 19.462 188.327 19.462H177.243V14.2283L186.066 14.2599C186.904 14.2599 187.521 13.6433 187.521 12.8052V11.1924C187.521 10.3544 186.92 9.75355 186.082 9.75355L177.243 9.72193V4.82026ZM208.519 21.9287C210.258 20.5688 211.143 18.9244 211.143 17.027C211.143 14.592 210.321 12.7894 208.677 11.6826C207.048 10.5758 205.23 9.97492 203.238 9.70612C201.34 9.45313 200.17 8.93134 199.68 8.33049C199.174 7.72964 199.174 7.00229 199.68 6.13264C200.186 5.27881 201.34 4.82026 203.238 4.82026C204.502 4.82026 205.593 5.10488 206.637 5.86384C207.27 6.32239 208.013 6.3382 208.55 5.8006L209.736 4.61471C210.369 3.98224 210.369 3.01772 209.657 2.43268C208.851 1.80021 208.155 1.3891 207.412 1.07286C206.194 0.566883 204.487 0.282271 202.305 0.282271C200.391 0.282271 198.541 0.898932 196.755 2.17969C194.984 3.46045 194.067 5.15231 194.067 7.25528C194.067 9.61124 194.841 11.2557 196.454 12.2202C198.035 13.1689 199.759 13.7381 201.641 13.9437C203.744 14.1492 205.008 14.6868 205.514 15.5565C206.02 16.4103 206.02 17.28 205.514 18.1496C205.024 19.0035 203.759 19.5569 201.672 19.462C199.901 19.3829 198.51 18.9402 197.308 18.0706C196.691 17.6278 195.948 17.612 195.411 18.1496L194.225 19.3197C193.561 19.9838 193.592 20.9641 194.335 21.5334C195.205 22.1975 196.027 22.656 196.929 23.0513C198.399 23.6838 200.249 24 202.447 24C204.755 24 206.764 23.3201 208.519 21.9287ZM226.892 4.82026H233.296C234.134 4.82026 234.751 4.2036 234.751 3.36558V1.73696C234.751 0.898932 234.134 0.282271 233.296 0.282271H215.65C214.812 0.282271 214.195 0.898932 214.195 1.73696V3.36558C214.195 4.2036 214.812 4.82026 215.65 4.82026H222.054V22.5453C222.054 23.3833 222.67 24 223.508 24H225.437C226.275 24 226.892 23.3833 226.892 22.5453V4.82026Z" fill="#3257FB"/>
</svg>
